<?xml version="1.0" encoding="utf-8"?>
<!-- Generator: Adobe Illustrator 21.1.0, SVG Export Plug-In . SVG Version: 6.00 Build 0)  -->
<svg version="1.1" id="Layer_1" xmlns="http://www.w3.org/2000/svg" xmlns:xlink="http://www.w3.org/1999/xlink" x="0px" y="0px"
	 viewBox="0 0 100 100" style="enable-background:new 0 0 100 100;" xml:space="preserve">
<g>
	<path d="M87,83.1L59.2,55.3c3.7-4.5,5.9-10.3,5.9-16.5c0-14.5-11.8-26.3-26.3-26.3S12.5,24.3,12.5,38.8c0,14.5,11.8,26.3,26.3,26.3
		c6.3,0,12-2.2,16.5-5.9L83.1,87c0.8,0.8,2.4,0.6,3.4-0.5C87.6,85.4,87.8,83.9,87,83.1z M38.8,59.6C27.3,59.6,18,50.3,18,38.8
		S27.3,18,38.8,18c11.5,0,20.8,9.3,20.8,20.8S50.3,59.6,38.8,59.6z"/>
</g>
</svg>
