<?xml version="1.0" encoding="utf-8"?>
<!-- Generator: Adobe Illustrator 21.1.0, SVG Export Plug-In . SVG Version: 6.00 Build 0)  -->
<svg version="1.1" id="Layer_1" xmlns="http://www.w3.org/2000/svg" xmlns:xlink="http://www.w3.org/1999/xlink" x="0px" y="0px"
	 viewBox="0 0 100 100" style="enable-background:new 0 0 100 100;" xml:space="preserve">
<path d="M77,21.2l-2,2l0,0L49.9,48.3l-27-27c-0.5-0.5-1.3-0.5-1.8,0c-0.4,0.5-0.4,1.3,0.1,1.8l2,2l0,0l25,25l-27,27
	c-0.5,0.5-0.5,1.3,0,1.8c0.5,0.4,1.3,0.4,1.8-0.1l2-2l0,0l25-25l27.1,27.1c0.5,0.5,1.3,0.5,1.8,0c0.4-0.5,0.4-1.3-0.1-1.8l-2-2l0,0
	L51.7,50l27.1-27.1c0.5-0.5,0.5-1.3,0-1.8C78.3,20.7,77.5,20.7,77,21.2z"/>
</svg>
