<?xml version="1.0" encoding="utf-8"?>
<!-- Generator: Adobe Illustrator 20.0.0, SVG Export Plug-In . SVG Version: 6.00 Build 0)  -->
<svg version="1.1" id="Layer_1" xmlns="http://www.w3.org/2000/svg" xmlns:xlink="http://www.w3.org/1999/xlink" x="0px" y="0px"
	 viewBox="0 0 80 80" enable-background="new 0 0 80 80" xml:space="preserve">
<g>
	<g>
		<path d="M43.7,22.8c-2.2,2.2-4.3,4.3-6.5,6.5c-1.8-1.6-3.9-2.7-6.4-3.1c-7.4-1.2-14.4,3.4-16,10.8c-1.2,5.7,0.5,10.6,5,14.2
			c4.6,3.7,9.7,4,14.9,1.6c3-1.4,5-3.7,5.9-7c0.1-0.3,0.1-0.6,0.2-1.1c-4.2,0-8.3,0-12.4,0c0-3,0-5.9,0-9c0.4,0,0.8,0,1.2,0
			c6.2,0,12.4,0,18.7,0c1.7,0,1.8,0,1.9,1.6c0.7,6.7-0.4,13-4.9,18.3C41,61.1,34.9,63.3,28,63.1C16.5,62.7,7.6,55,5.7,43.7
			c-2.1-12.8,6.7-24.4,18.9-26.4c6.8-1.1,13,0.4,18.4,4.8C43.2,22.3,43.5,22.6,43.7,22.8z"/>
		<path d="M61.8,42.9c-2.5,0-4.8,0-7.2,0c0-1.9,0-3.8,0-5.7c2.3,0,4.7,0,7.2,0c0-2.4,0-4.8,0-7.2c2,0,3.8,0,5.7,0c0,2.3,0,4.7,0,7.1
			c2.5,0,4.8,0,7.2,0c0,2,0,3.8,0,5.8c-2.4,0-4.7,0-7.1,0c0,2.4,0,4.7,0,7.1c-1.9,0-3.8,0-5.7,0C61.8,47.7,61.8,45.4,61.8,42.9z"/>
	</g>
</g>
</svg>
