<?xml version="1.0" encoding="utf-8"?>
<!-- Generator: Adobe Illustrator 20.0.0, SVG Export Plug-In . SVG Version: 6.00 Build 0)  -->
<svg version="1.1" id="Layer_1" xmlns="http://www.w3.org/2000/svg" xmlns:xlink="http://www.w3.org/1999/xlink" x="0px" y="0px"
	 viewBox="0 0 80 80" enable-background="new 0 0 80 80" xml:space="preserve">
<g>
	<path d="M40,15.6c8,0,8.9,0,12,0.2c2.9,0.1,4.5,0.6,5.5,1C59,17.3,59.9,18,61,19c1,1,1.7,2,2.2,3.4c0.4,1,0.9,2.6,1,5.5
		c0.1,3.1,0.2,4.1,0.2,12s0,8.9-0.2,12c-0.1,2.9-0.6,4.5-1,5.5C62.7,59,62,59.9,61,61c-1,1-2,1.7-3.4,2.2c-1,0.4-2.6,0.9-5.5,1
		c-3.1,0.1-4.1,0.2-12,0.2s-8.9,0-12-0.2c-2.9-0.1-4.5-0.6-5.5-1C21,62.7,20.1,62,19,61c-1-1-1.7-2-2.2-3.4c-0.4-1-0.9-2.6-1-5.5
		c-0.1-3.1-0.2-4.1-0.2-12s0-8.9,0.2-12c0.1-2.9,0.6-4.5,1-5.5C17.3,21,18,20.1,19,19c1-1,2-1.7,3.4-2.2c1-0.4,2.6-0.9,5.5-1
		C31.1,15.6,32,15.6,40,15.6 M40,10.2c-8.1,0-9.1,0-12.3,0.2c-3.2,0.1-5.3,0.6-7.2,1.4c-2,0.8-3.6,1.8-5.3,3.4
		c-1.7,1.7-2.7,3.3-3.4,5.3c-0.7,1.9-1.2,4.1-1.4,7.2c-0.1,3.2-0.2,4.2-0.2,12.3c0,8.1,0,9.1,0.2,12.3c0.1,3.2,0.6,5.3,1.4,7.2
		c0.8,2,1.8,3.6,3.4,5.3c1.7,1.7,3.3,2.7,5.3,3.4c1.9,0.7,4.1,1.2,7.2,1.4c3.2,0.1,4.2,0.2,12.3,0.2s9.1,0,12.3-0.2
		c3.2-0.1,5.3-0.6,7.2-1.4c2-0.8,3.6-1.8,5.3-3.4c1.7-1.7,2.7-3.3,3.4-5.3c0.7-1.9,1.2-4.1,1.4-7.2c0.1-3.2,0.2-4.2,0.2-12.3
		s0-9.1-0.2-12.3c-0.1-3.2-0.6-5.3-1.4-7.2c-0.8-2-1.8-3.6-3.4-5.3c-1.7-1.7-3.3-2.7-5.3-3.4c-1.9-0.7-4.1-1.2-7.2-1.4
		C49.1,10.3,48.1,10.2,40,10.2L40,10.2z"/>
	<path d="M40,24.7c-8.4,0-15.3,6.8-15.3,15.3S31.6,55.3,40,55.3S55.3,48.4,55.3,40S48.4,24.7,40,24.7z M40,49.9
		c-5.5,0-9.9-4.4-9.9-9.9s4.4-9.9,9.9-9.9s9.9,4.4,9.9,9.9S45.5,49.9,40,49.9z"/>
	<circle cx="55.9" cy="24.1" r="3.6"/>
</g>
</svg>
