<?xml version="1.0" encoding="utf-8"?>
<!-- Generator: Adobe Illustrator 20.0.0, SVG Export Plug-In . SVG Version: 6.00 Build 0)  -->
<svg version="1.1" id="Layer_1" xmlns="http://www.w3.org/2000/svg" xmlns:xlink="http://www.w3.org/1999/xlink" x="0px" y="0px"
	 viewBox="0 0 80 80" enable-background="new 0 0 80 80" xml:space="preserve">
<path d="M60.7,14.7c-8.1-0.3-13.6,4.3-16.5,13.7c1.5-0.6,2.9-1,4.3-1c3,0,4.3,1.7,3.9,5c-0.2,2-1.5,5-3.9,8.8
	c-2.5,3.9-4.3,5.8-5.5,5.8c-1.6,0-3-3-4.3-8.9c-0.4-1.8-1.2-6.2-2.4-13.4c-1.1-6.7-3.9-9.8-8.4-9.3c-1.9,0.2-4.8,1.9-8.7,5.3
	c-2.8,2.5-5.6,5.1-8.5,7.6l2.8,3.5c2.6-1.8,4.2-2.8,4.6-2.8c2,0,3.9,3.2,5.6,9.4c1.6,5.8,3.1,11.5,4.7,17.3c2.4,6.3,5.2,9.4,8.7,9.4
	c5.5,0,12.2-5.2,20.2-15.5C65,39.9,69,32.1,69.2,26.4C69.6,18.8,66.7,14.9,60.7,14.7z"/>
</svg>
