<?xml version="1.0" encoding="utf-8"?>
<!-- Generator: Adobe Illustrator 20.0.0, SVG Export Plug-In . SVG Version: 6.00 Build 0)  -->
<svg version="1.1" id="Layer_1" xmlns="http://www.w3.org/2000/svg" xmlns:xlink="http://www.w3.org/1999/xlink" x="0px" y="0px"
	 viewBox="0 0 80 80" enable-background="new 0 0 80 80" xml:space="preserve">
<path d="M23,44.9c0.8,0.3,1.6,0,1.8-0.9c0.2-0.6,0.6-2.2,0.7-2.9c0.2-0.9,0.1-1.2-0.5-2c-1.5-1.7-2.4-4-2.4-7.1
	c0-9.2,6.9-17.4,17.9-17.4c9.8,0,15.1,6,15.1,13.9c0,10.5-4.6,19.3-11.5,19.3c-3.8,0-6.6-3.1-5.7-7c1.1-4.6,3.2-9.6,3.2-12.9
	c0-3-1.6-5.5-4.9-5.5c-3.9,0-7,4-7,9.4c0,3.4,1.2,5.7,1.2,5.7s-4,16.8-4.7,19.8c-1.4,5.9-0.2,13.1-0.1,13.8c0.1,0.4,0.6,0.5,0.9,0.2
	c0.4-0.5,5-6.2,6.6-11.9c0.4-1.6,2.6-10,2.6-10c1.3,2.4,4.9,4.5,8.9,4.5c11.7,0,19.6-10.6,19.6-24.9c0-10.8-9.1-20.8-23-20.8
	c-17.3,0-26,12.4-26,22.7C15.5,37.3,17.9,42.9,23,44.9z"/>
</svg>
