<?xml version="1.0" encoding="utf-8"?>
<!-- Generator: Adobe Illustrator 17.0.0, SVG Export Plug-In . SVG Version: 6.00 Build 0)  -->
<!DOCTYPE svg PUBLIC "-//W3C//DTD SVG 1.1//EN" "http://www.w3.org/Graphics/SVG/1.1/DTD/svg11.dtd">
<svg version="1.1" id="Layer_1" xmlns="http://www.w3.org/2000/svg" xmlns:xlink="http://www.w3.org/1999/xlink" x="0px" y="0px"
	 width="400px" height="400px" viewBox="0 0 400 400" enable-background="new 0 0 400 400" xml:space="preserve">
	<path d="M318.164,61.288H81.746c-11.288,0-20.462,8.956-20.462,19.988v237.418c0,11.048,9.174,20.018,20.462,20.018h236.417
				c11.311,0,20.553-8.971,20.553-20.018V81.276C338.716,70.243,329.475,61.288,318.164,61.288z M143.584,297.683h-41.188V165.296
				h41.188V297.683z M123.002,147.192c-13.223,0-23.871-10.69-23.871-23.863c0-13.155,10.649-23.849,23.871-23.849
				c13.162,0,23.849,10.694,23.849,23.849C146.85,136.503,136.164,147.192,123.002,147.192z M297.671,297.683h-41.113v-64.375
				c0-15.352-0.293-35.107-21.38-35.107c-21.418,0-24.684,16.722-24.684,33.993v65.488h-41.097V165.296h39.442v18.087h0.564
				c5.486-10.411,18.92-21.384,38.937-21.384c41.632,0,49.331,27.413,49.331,63.069V297.683z"/>
</svg>
