<?xml version="1.0" encoding="utf-8"?>
<!-- Generator: Adobe Illustrator 20.0.0, SVG Export Plug-In . SVG Version: 6.00 Build 0)  -->
<svg version="1.1" id="Layer_1" xmlns="http://www.w3.org/2000/svg" xmlns:xlink="http://www.w3.org/1999/xlink" x="0px" y="0px"
	 viewBox="0 0 80 80" enable-background="new 0 0 80 80" xml:space="preserve">
<path d="M5.1,61.9c6.3,4.1,13.9,6.4,21.9,6.4c26.6,0,41.6-22.5,40.7-42.6c2.8-2,5.2-4.5,7.1-7.4c-2.6,1.1-5.3,1.9-8.2,2.3
	c3-1.8,5.2-4.6,6.3-7.9c-2.8,1.6-5.8,2.8-9.1,3.5c-2.6-2.8-6.3-4.5-10.5-4.5c-9.2,0-16,8.6-13.9,17.6C27.6,28.6,17,22.9,10,14.3
	C6.2,20.7,8,29.1,14.4,33.4c-2.3-0.1-4.6-0.7-6.5-1.8c-0.2,6.6,4.6,12.8,11.5,14.2c-2,0.5-4.2,0.7-6.5,0.2c1.8,5.7,7.1,9.8,13.4,9.9
	C20.3,60.7,12.7,62.8,5.1,61.9z"/>
</svg>
