<?xml version="1.0" encoding="utf-8"?>
<!-- Generator: Adobe Illustrator 20.0.0, SVG Export Plug-In . SVG Version: 6.00 Build 0)  -->
<svg version="1.1" id="Layer_1" xmlns="http://www.w3.org/2000/svg" xmlns:xlink="http://www.w3.org/1999/xlink" x="0px" y="0px"
	 viewBox="0 0 80 80" enable-background="new 0 0 80 80" xml:space="preserve">
<path d="M19.4,6.7h4L26.2,17l2.5-10.3h4L28.1,22v10.4h-4V22L19.4,6.7z M37.7,13.3c-3.1,0-5.2,2.1-5.2,5.1v9.3
	c0,3.3,1.7,5.1,5.2,5.1c2.8,0,5.1-1.9,5.1-5.1v-9.3C42.8,15.4,40.6,13.3,37.7,13.3z M39.2,27.5c0,1-0.5,1.8-1.5,1.8
	c-1,0-1.5-0.8-1.5-1.8v-8.8c0-1,0.5-1.8,1.5-1.8c1.1,0,1.5,0.7,1.5,1.8V27.5z M52.4,13.4v14.4c-0.4,0.5-1.4,1.4-2.1,1.4
	c-0.8,0-0.9-0.5-0.9-1.3V13.4h-3.5v15.9c0,1.9,0.6,3.4,2.5,3.4c1.1,0,2.5-0.6,4.1-2.4v2.1h3.5v-19H52.4z M58.5,51.9
	c-1.2,0-1.5,0.9-1.5,2.1v1.8h3V54C59.9,52.8,59.7,51.9,58.5,51.9z M45.4,52c-0.2,0.1-0.5,0.3-0.7,0.5v11.3c0.3,0.3,0.5,0.5,0.8,0.6
	c0.5,0.3,1.3,0.3,1.7-0.2c0.2-0.3,0.3-0.7,0.3-1.2v-9.3c0-0.6-0.1-1.1-0.4-1.4C46.8,51.8,46,51.7,45.4,52z M58.8,37.6
	c-7.2-0.5-30.7-0.5-37.9,0c-7.8,0.5-8.7,5.3-8.8,17.7c0.1,12.4,1,17.1,8.8,17.7c7.2,0.5,30.7,0.5,37.9,0c7.8-0.5,8.7-5.3,8.8-17.7
	C67.5,42.9,66.6,38.1,58.8,37.6z M24.6,67.3h-3.8V46.3h-3.9v-3.6h11.6v3.6h-3.9L24.6,67.3L24.6,67.3z M38.1,67.3h-3.4v-2
	c-0.6,0.7-1.3,1.3-1.9,1.7c-1.8,1-4.3,1-4.3-2.7V49.2h3.4V63c0,0.7,0.2,1.2,0.9,1.2c0.7,0,1.6-0.8,2-1.4V49.2H38L38.1,67.3
	L38.1,67.3z M51,63.5c0,2.2-0.8,4-3.1,4c-1.2,0-2.3-0.4-3.2-1.6v1.4h-3.4V42.8h3.4v7.9c0.8-0.9,1.8-1.7,3-1.7c2.5,0,3.3,2.1,3.3,4.5
	L51,63.5L51,63.5z M63.4,58.7H57v3.4c0,1.4,0.1,2.5,1.5,2.5c1.4,0,1.5-1,1.5-2.5v-1.3h3.5v1.4c0,3.5-1.5,5.6-5,5.6
	c-3.2,0-4.8-2.3-4.8-5.6v-8.1c0-3.1,2.1-5.3,5.1-5.3c3.2,0,4.8,2,4.8,5.3L63.4,58.7L63.4,58.7z"/>
</svg>
