<?xml version="1.0" encoding="utf-8"?>
<!-- Generator: Adobe Illustrator 20.0.0, SVG Export Plug-In . SVG Version: 6.00 Build 0)  -->
<svg version="1.1" id="Layer_1" xmlns="http://www.w3.org/2000/svg" xmlns:xlink="http://www.w3.org/1999/xlink" x="0px" y="0px"
	 viewBox="0 0 80 80" style="enable-background:new 0 0 80 80;" xml:space="preserve">
<path fill="currentColor" d="M54.2,43.9c-3.3,0-6.2,1.6-8,4l-10.7-5.2c0.2-0.9,0.4-1.7,0.4-2.7c0-0.9-0.1-1.8-0.4-2.7l10.7-5.2
	c1.8,2.4,4.7,4,8,4c5.5,0,10-4.5,10-10s-4.5-10-10-10s-10,4.5-10,10c0,0.9,0.1,1.8,0.4,2.7L33.8,34c-1.8-2.4-4.7-4-8-4
	c-5.5,0-10,4.5-10,10s4.5,10,10,10c3.3,0,6.2-1.6,8-4l10.7,5.2c-0.2,0.9-0.4,1.7-0.4,2.7c0,5.5,4.5,10,10,10s10-4.5,10-10
	S59.7,43.9,54.2,43.9z M54.2,19.8c3.5,0,6.3,2.8,6.3,6.3s-2.8,6.3-6.3,6.3c-3.5,0-6.3-2.8-6.3-6.3S50.7,19.8,54.2,19.8z M54.2,60.2
	c-3.5,0-6.3-2.8-6.3-6.3c0-3.5,2.8-6.3,6.3-6.3c3.5,0,6.3,2.8,6.3,6.3C60.5,57.4,57.7,60.2,54.2,60.2z"/>
</svg>
