<?xml version="1.0" encoding="utf-8"?>
<!-- Generator: Adobe Illustrator 21.1.0, SVG Export Plug-In . SVG Version: 6.00 Build 0)  -->
<svg version="1.1" id="Layer_1" xmlns="http://www.w3.org/2000/svg" xmlns:xlink="http://www.w3.org/1999/xlink" x="0px" y="0px"
	 viewBox="0 0 100 100" style="enable-background:new 0 0 100 100;" xml:space="preserve">
<path d="M89.5,48.7h-2.8l0,0H51.2V10.5c0-0.7-0.6-1.3-1.3-1.3c-0.6,0.1-1.2,0.7-1.2,1.4v2.8l0,0v35.4H10.5c-0.7,0-1.3,0.6-1.3,1.3
	c0.1,0.6,0.7,1.2,1.4,1.2h2.8l0,0h35.4v38.3c0,0.7,0.6,1.3,1.3,1.3c0.6-0.1,1.2-0.7,1.2-1.4v-2.8l0,0V51.2h38.3
	c0.7,0,1.3-0.6,1.3-1.3C90.8,49.3,90.2,48.7,89.5,48.7z"/>
</svg>
