<?xml version="1.0" encoding="utf-8"?>
<!-- Generator: Adobe Illustrator 22.0.1, SVG Export Plug-In . SVG Version: 6.00 Build 0)  -->
<svg version="1.1" id="Layer_1" xmlns="http://www.w3.org/2000/svg" xmlns:xlink="http://www.w3.org/1999/xlink" x="0px" y="0px"
	 viewBox="0 0 80 80" style="enable-background:new 0 0 80 80;" xml:space="preserve">
<g>
	<path d="M8.4,53.8c-1.7-1.6-2.9-3.9-2.9-6.5c0-2.6,1.1-4.9,2.9-6.5V53.8z"/>
	<path d="M14.1,55.8c-1,0-1.6,0-2.9-0.4V39.1c1.4-0.4,2-0.4,2.9-0.3V55.8z"/>
	<path d="M19.9,55.8H17V39.5l0.9,0.5c0.4-1.6,1.1-3.1,2-4.4L19.9,55.8L19.9,55.8z"/>
	<path d="M25.6,55.8h-2.9V32.6c0.9-0.7,1.8-1.2,2.9-1.6V55.8z"/>
	<path d="M31.4,55.8h-2.9V30.3c1.1-0.1,1.4-0.2,2.9,0C31.4,30.4,31.4,55.8,31.4,55.8z"/>
	<path d="M37.1,55.8h-2.9V31.2l1.1,0.5c0.5-0.9,1.1-1.7,1.8-2.5V55.8z"/>
	<path d="M66.1,55.8H40V26.7c2.3-1.6,5-2.5,7.9-2.5c7.8,0,14.1,6.4,14.7,14.6c5.6-2.8,11.9,1.7,11.9,8.1
		C74.5,51.8,70.8,55.8,66.1,55.8z"/>
</g>
</svg>
