<?xml version="1.0" encoding="utf-8"?>
<!-- Generator: Adobe Illustrator 20.0.0, SVG Export Plug-In . SVG Version: 6.00 Build 0)  -->
<svg version="1.1" id="Layer_1" xmlns="http://www.w3.org/2000/svg" xmlns:xlink="http://www.w3.org/1999/xlink" x="0px" y="0px"
	 viewBox="0 0 80 80" enable-background="new 0 0 80 80" xml:space="preserve">
<path d="M22.9,19.3c-1.7,3.7-1,10.4-0.7,15.1c-1.8,1-4.1-0.8-5.4-0.8c-1.4,0-3,0.9-3.2,2.2c-0.2,1,0.2,2.4,3.3,3.6
	c1.2,0.5,4,1,4.7,2.6c0.9,2.2-4.7,12.2-13.7,13.7c-0.7,0.1-1.2,0.7-1.2,1.4c0.2,2.7,6.2,3.8,8.9,4.2c0.3,0.4,0.5,1.9,0.8,3.1
	c0.2,0.5,0.6,1.2,1.6,1.2c1.4,0,3.6-1.1,7.6-0.4c3.9,0.6,7.5,6.2,14.5,6.2c6.5,0,10.4-5.5,14.1-6.2c2.2-0.4,4-0.2,6.1,0.2
	c1.4,0.3,2.7,0.4,3.1-1c0.4-1.2,0.6-2.8,0.8-3.1c2.7-0.4,8.8-1.5,8.9-4.2c0-0.7-0.5-1.3-1.2-1.4C63.4,54.2,57.6,44.2,58.5,42
	c0.7-1.5,3.5-2.1,4.7-2.6c2.3-0.9,3.4-2,3.4-3.3c0-1.6-2-2.6-3.4-2.6c-1.5,0-3.6,1.7-5.3,0.8c0.3-4.7,0.9-11.4-0.7-15.1
	C54,12.2,47,8.6,40,8.6C33,8.6,26,12.1,22.9,19.3z"/>
</svg>
