<?xml version="1.0" encoding="utf-8"?>
<!-- Generator: Adobe Illustrator 17.0.0, SVG Export Plug-In . SVG Version: 6.00 Build 0)  -->
<!DOCTYPE svg PUBLIC "-//W3C//DTD SVG 1.1//EN" "http://www.w3.org/Graphics/SVG/1.1/DTD/svg11.dtd">
<svg version="1.1" id="Layer_1" xmlns="http://www.w3.org/2000/svg" xmlns:xlink="http://www.w3.org/1999/xlink" x="0px" y="0px"
	 width="400px" height="400px" viewBox="0 0 400 400" enable-background="new 0 0 400 400" xml:space="preserve">
	<g>
		<path fill="currentColor" d="M371,371.486H28.023V28.507H371V371.486z M47.164,352.345h304.695V47.648H47.164V352.345z"/>
	</g>
	<g>
		<path fill="currentColor" d="M231.184,272.441c-0.717,0.717-1.467,1.286-2.25,1.715c-0.787,0.429-1.896,0.643-3.322,0.643h-68.154
			c-2.003,0-3-0.998-3-3.001V128.202c0-1.999,0.998-3,3-3h68.154c0.998,0,1.929,0.144,2.786,0.429
			c0.857,0.288,1.785,0.931,2.786,1.929l12.002,12.002c1.143,1.286,1.822,2.324,2.036,3.108c0.215,0.787,0.321,1.607,0.321,2.465
			v42.436c0,2.144-0.786,4.002-2.357,5.573l-8.358,8.573l8.358,8.358c1.571,1.574,2.357,3.001,2.357,4.286v40.508
			c0,2.143-0.786,4.001-2.357,5.572L231.184,272.441z M213.396,181.139c0.428-0.429,0.643-0.927,0.643-1.5v-17.146
			c0-0.569-0.215-1.071-0.643-1.5l-3.644-3.644c-0.429-0.429-0.857-0.643-1.286-0.643h-22.504v27.433h24.433L213.396,181.139z
			 M213.396,240.293c0.428-0.569,0.643-1.071,0.643-1.5v-17.36c0-0.569-0.215-1.071-0.643-1.5l-3.644-3.644
			c-0.429-0.429-0.857-0.644-1.286-0.644h-22.504v27.647h24.433L213.396,240.293z"/>
	</g>
</svg>
